<svg width="97" height="42" viewBox="0 0 97 42" fill="none" xmlns="http://www.w3.org/2000/svg">
<path d="M36.4322 1C25.8128 7.11422 15.1934 13.2284 13.9062 16.3782C10.9749 23.551 30.8934 19.2061 31.7174 19.0404C38.5519 17.6654 17.2997 25.0278 7.53841 32.1757C2.90589 35.5679 1.00488 39.0213 1 40.6449C0.995154 42.2588 17.4362 34.8769 40.8204 23.5066C53.614 17.2859 60.7819 15.9589 65.6527 15.1446C67.6077 14.8178 68.5928 15.2958 68.7684 16.9096C68.9439 18.5235 68.3003 21.4197 66.8424 23.5553C60.7126 32.5348 44.3017 30.908 26.8221 27.846C16.1003 25.1058 1.61922 19.957 18.7771 20.0399C35.9349 20.1228 45.7725 22.2096 96.5 27.846" stroke="white" stroke-linecap="round"/>
</svg>
